<svg width="23" height="22" viewBox="0 0 23 22" fill="none" xmlns="http://www.w3.org/2000/svg">
<path d="M16.0167 12.8667C16.5028 12.8667 16.9354 12.6771 17.3146 12.2979C17.6938 11.9187 17.8833 11.4812 17.8833 10.9854C17.8833 10.4896 17.6938 10.0569 17.3146 9.6875C16.9354 9.31806 16.5028 9.13333 16.0167 9.13333C15.5306 9.13333 15.0979 9.31806 14.7188 9.6875C14.3396 10.0569 14.15 10.4896 14.15 10.9854C14.15 11.4812 14.3396 11.9187 14.7188 12.2979C15.0979 12.6771 15.5306 12.8667 16.0167 12.8667ZM2.25 18.2042V19.75V2.25V18.2042ZM2.25 21.5C1.80278 21.5 1.39931 21.325 1.03958 20.975C0.679861 20.625 0.5 20.2167 0.5 19.75V2.25C0.5 1.80278 0.679861 1.39931 1.03958 1.03958C1.39931 0.679861 1.80278 0.5 2.25 0.5H19.75C20.2167 0.5 20.625 0.679861 20.975 1.03958C21.325 1.39931 21.5 1.80278 21.5 2.25V6.15833H19.75V2.25H2.25V19.75H19.75V15.8708H21.5V19.75C21.5 20.2167 21.325 20.625 20.975 20.975C20.625 21.325 20.2167 21.5 19.75 21.5H2.25ZM12.6917 16.4542C12.0306 16.4542 11.5056 16.2597 11.1167 15.8708C10.7278 15.4819 10.5333 14.9667 10.5333 14.325V7.70417C10.5333 7.04306 10.7278 6.52292 11.1167 6.14375C11.5056 5.76458 12.0306 5.575 12.6917 5.575H20.5667C21.2278 5.575 21.7528 5.76458 22.1417 6.14375C22.5306 6.52292 22.725 7.04306 22.725 7.70417V14.325C22.725 14.9667 22.5306 15.4819 22.1417 15.8708C21.7528 16.2597 21.2278 16.4542 20.5667 16.4542H12.6917Z" fill="#2E2737"/>
</svg>
