<svg width="16" height="9" viewBox="0 0 16 9" fill="none" xmlns="http://www.w3.org/2000/svg">
<path d="M8 8.875C7.89583 8.875 7.78646 8.85417 7.67188 8.8125C7.55729 8.77083 7.44792 8.69792 7.34375 8.59375L1.1875 2.4375C1 2.25 0.90625 2.02083 0.90625 1.75C0.90625 1.47917 1 1.25 1.1875 1.0625C1.375 0.875 1.59375 0.78125 1.84375 0.78125C2.09375 0.78125 2.3125 0.875 2.5 1.0625L8 6.5625L13.5 1.0625C13.6875 0.875 13.9115 0.78125 14.1719 0.78125C14.4323 0.78125 14.6562 0.875 14.8438 1.0625C15.0312 1.25 15.125 1.47396 15.125 1.73438C15.125 1.99479 15.0312 2.21875 14.8438 2.40625L8.65625 8.59375C8.55208 8.69792 8.44792 8.77083 8.34375 8.8125C8.23958 8.85417 8.125 8.875 8 8.875Z" fill="#2E2737"/>
</svg>
