<svg width="16" height="9" viewBox="0 0 16 9" fill="none" xmlns="http://www.w3.org/2000/svg">
<path d="M8 0.125C7.89583 0.125 7.78646 0.145833 7.67188 0.1875C7.55729 0.229167 7.44792 0.302083 7.34375 0.40625L1.1875 6.5625C1 6.75 0.90625 6.97917 0.90625 7.25C0.90625 7.52083 1 7.75 1.1875 7.9375C1.375 8.125 1.59375 8.21875 1.84375 8.21875C2.09375 8.21875 2.3125 8.125 2.5 7.9375L8 2.4375L13.5 7.9375C13.6875 8.125 13.9115 8.21875 14.1719 8.21875C14.4323 8.21875 14.6562 8.125 14.8438 7.9375C15.0312 7.75 15.125 7.52604 15.125 7.26562C15.125 7.00521 15.0312 6.78125 14.8438 6.59375L8.65625 0.40625C8.55208 0.302083 8.44792 0.229167 8.34375 0.1875C8.23958 0.145833 8.125 0.125 8 0.125Z" fill="#2E2737"/>
</svg>
