<svg width="12" height="14" viewBox="0 0 12 14" fill="none" xmlns="http://www.w3.org/2000/svg">
<path d="M6 8.3335C5.81111 8.3335 5.65278 8.26961 5.525 8.14183C5.39722 8.01405 5.33333 7.85572 5.33333 7.66683C5.33333 7.47794 5.39722 7.31961 5.525 7.19183C5.65278 7.06405 5.81111 7.00016 6 7.00016C6.18889 7.00016 6.34722 7.06405 6.475 7.19183C6.60278 7.31961 6.66667 7.47794 6.66667 7.66683C6.66667 7.85572 6.60278 8.01405 6.475 8.14183C6.34722 8.26961 6.18889 8.3335 6 8.3335ZM3.33333 8.3335C3.14444 8.3335 2.98611 8.26961 2.85833 8.14183C2.73056 8.01405 2.66667 7.85572 2.66667 7.66683C2.66667 7.47794 2.73056 7.31961 2.85833 7.19183C2.98611 7.06405 3.14444 7.00016 3.33333 7.00016C3.52222 7.00016 3.68056 7.06405 3.80833 7.19183C3.93611 7.31961 4 7.47794 4 7.66683C4 7.85572 3.93611 8.01405 3.80833 8.14183C3.68056 8.26961 3.52222 8.3335 3.33333 8.3335ZM8.66667 8.3335C8.47778 8.3335 8.31944 8.26961 8.19167 8.14183C8.06389 8.01405 8 7.85572 8 7.66683C8 7.47794 8.06389 7.31961 8.19167 7.19183C8.31944 7.06405 8.47778 7.00016 8.66667 7.00016C8.85556 7.00016 9.01389 7.06405 9.14167 7.19183C9.26944 7.31961 9.33333 7.47794 9.33333 7.66683C9.33333 7.85572 9.26944 8.01405 9.14167 8.14183C9.01389 8.26961 8.85556 8.3335 8.66667 8.3335ZM6 11.0002C5.81111 11.0002 5.65278 10.9363 5.525 10.8085C5.39722 10.6807 5.33333 10.5224 5.33333 10.3335C5.33333 10.1446 5.39722 9.98627 5.525 9.8585C5.65278 9.73072 5.81111 9.66683 6 9.66683C6.18889 9.66683 6.34722 9.73072 6.475 9.8585C6.60278 9.98627 6.66667 10.1446 6.66667 10.3335C6.66667 10.5224 6.60278 10.6807 6.475 10.8085C6.34722 10.9363 6.18889 11.0002 6 11.0002ZM3.33333 11.0002C3.14444 11.0002 2.98611 10.9363 2.85833 10.8085C2.73056 10.6807 2.66667 10.5224 2.66667 10.3335C2.66667 10.1446 2.73056 9.98627 2.85833 9.8585C2.98611 9.73072 3.14444 9.66683 3.33333 9.66683C3.52222 9.66683 3.68056 9.73072 3.80833 9.8585C3.93611 9.98627 4 10.1446 4 10.3335C4 10.5224 3.93611 10.6807 3.80833 10.8085C3.68056 10.9363 3.52222 11.0002 3.33333 11.0002ZM8.66667 11.0002C8.47778 11.0002 8.31944 10.9363 8.19167 10.8085C8.06389 10.6807 8 10.5224 8 10.3335C8 10.1446 8.06389 9.98627 8.19167 9.8585C8.31944 9.73072 8.47778 9.66683 8.66667 9.66683C8.85556 9.66683 9.01389 9.73072 9.14167 9.8585C9.26944 9.98627 9.33333 10.1446 9.33333 10.3335C9.33333 10.5224 9.26944 10.6807 9.14167 10.8085C9.01389 10.9363 8.85556 11.0002 8.66667 11.0002ZM1 13.6668C0.733333 13.6668 0.5 13.5668 0.3 13.3668C0.1 13.1668 0 12.9335 0 12.6668V2.3335C0 2.06683 0.1 1.8335 0.3 1.6335C0.5 1.4335 0.733333 1.3335 1 1.3335H2.08333V0.333496H3.16667V1.3335H8.83333V0.333496H9.91667V1.3335H11C11.2667 1.3335 11.5 1.4335 11.7 1.6335C11.9 1.8335 12 2.06683 12 2.3335V12.6668C12 12.9335 11.9 13.1668 11.7 13.3668C11.5 13.5668 11.2667 13.6668 11 13.6668H1ZM1 12.6668H11V5.50016H1V12.6668Z" fill="#F6CA5A"/>
</svg>
