<svg width="28" height="28" viewBox="0 0 28 28" fill="none" xmlns="http://www.w3.org/2000/svg">
<path d="M1.99119 27.5C1.57206 27.5 1.21875 27.3542 0.93125 27.0625C0.64375 26.7708 0.5 26.4167 0.5 26V14.225L3.6875 4.625C3.7625 4.275 3.955 4 4.265 3.8C4.575 3.6 4.92 3.5 5.3 3.5H10.0625V1.8125C10.0625 1.49375 10.1703 1.22656 10.3859 1.01094C10.6016 0.795313 10.8688 0.6875 11.1875 0.6875H16.8875C17.2063 0.6875 17.4734 0.795313 17.6891 1.01094C17.9047 1.22656 18.0125 1.49375 18.0125 1.8125V3.5H22.7C23.08 3.5 23.425 3.6 23.735 3.8C24.045 4 24.2375 4.275 24.3125 4.625L27.5 14.225V26C27.5 26.4167 27.3533 26.7708 27.0599 27.0625C26.7665 27.3542 26.4103 27.5 25.9912 27.5C25.5721 27.5 25.2125 27.3505 24.9125 27.0516C24.6125 26.7526 24.4625 26.3896 24.4625 25.9625V24.35H3.5V26C3.5 26.4167 3.35331 26.7708 3.05994 27.0625C2.76654 27.3542 2.41029 27.5 1.99119 27.5ZM3.6125 11.975H24.3875L22.325 5.75H5.675L3.6125 11.975ZM6.71619 20.225C7.29706 20.225 7.78125 20.0281 8.16875 19.6344C8.55625 19.2406 8.75 18.7625 8.75 18.2C8.75 17.6167 8.55313 17.1208 8.15938 16.7125C7.76563 16.3042 7.2875 16.1 6.725 16.1C6.14167 16.1 5.64584 16.3033 5.23749 16.7099C4.82916 17.1165 4.625 17.6103 4.625 18.1912C4.625 18.7721 4.82831 19.2563 5.23494 19.6438C5.64154 20.0312 6.13529 20.225 6.71619 20.225ZM21.3125 20.225C21.8958 20.225 22.3917 20.0281 22.8 19.6344C23.2083 19.2406 23.4125 18.7625 23.4125 18.2C23.4125 17.6167 23.2092 17.1208 22.8026 16.7125C22.396 16.3042 21.9022 16.1 21.3213 16.1C20.7404 16.1 20.2563 16.3033 19.8688 16.7099C19.4813 17.1165 19.2875 17.6103 19.2875 18.1912C19.2875 18.7721 19.4844 19.2563 19.8781 19.6438C20.2719 20.0312 20.75 20.225 21.3125 20.225ZM2.75 22.1H25.25V14.225H2.75V22.1Z" fill="white"/>
</svg>
