<svg width="13" height="13" viewBox="0 0 13 13" fill="none" xmlns="http://www.w3.org/2000/svg">
<path d="M6.5 12.75C5.64583 12.75 4.83854 12.5859 4.07812 12.2578C3.31771 11.9297 2.65365 11.4818 2.08594 10.9141C1.51823 10.3464 1.07031 9.68229 0.742188 8.92188C0.414062 8.16146 0.25 7.35417 0.25 6.5C0.25 5.63542 0.414062 4.82292 0.742188 4.0625C1.07031 3.30208 1.51823 2.64062 2.08594 2.07812C2.65365 1.51562 3.31771 1.07031 4.07812 0.742188C4.83854 0.414062 5.64583 0.25 6.5 0.25C7.36458 0.25 8.17708 0.414062 8.9375 0.742188C9.69792 1.07031 10.3594 1.51562 10.9219 2.07812C11.4844 2.64062 11.9297 3.30208 12.2578 4.0625C12.5859 4.82292 12.75 5.63542 12.75 6.5C12.75 7.35417 12.5859 8.16146 12.2578 8.92188C11.9297 9.68229 11.4844 10.3464 10.9219 10.9141C10.3594 11.4818 9.69792 11.9297 8.9375 12.2578C8.17708 12.5859 7.36458 12.75 6.5 12.75ZM6.48438 10.9844C6.59896 10.9844 6.69792 10.9401 6.78125 10.8516C6.86458 10.763 6.90625 10.6615 6.90625 10.5469V10.1719C7.53125 10.099 8.02344 9.88802 8.38281 9.53906C8.74219 9.1901 8.92188 8.74479 8.92188 8.20312C8.92188 7.66146 8.77344 7.22917 8.47656 6.90625C8.17969 6.58333 7.66667 6.30208 6.9375 6.0625C6.28125 5.84375 5.83073 5.6276 5.58594 5.41406C5.34115 5.20052 5.21875 4.92188 5.21875 4.57812C5.21875 4.25521 5.33594 4.0026 5.57031 3.82031C5.80469 3.63802 6.125 3.54688 6.53125 3.54688C6.78125 3.54688 7.00521 3.59375 7.20312 3.6875C7.40104 3.78125 7.57292 3.92188 7.71875 4.10938C7.79167 4.19271 7.88021 4.25 7.98438 4.28125C8.08854 4.3125 8.1875 4.30208 8.28125 4.25C8.39583 4.19792 8.47135 4.11458 8.50781 4C8.54427 3.88542 8.52604 3.78125 8.45312 3.6875C8.27604 3.4375 8.0599 3.23958 7.80469 3.09375C7.54948 2.94792 7.26042 2.85938 6.9375 2.82812V2.45312C6.9375 2.33854 6.89583 2.23958 6.8125 2.15625C6.72917 2.07292 6.63021 2.03125 6.51562 2.03125C6.40104 2.03125 6.29948 2.07292 6.21094 2.15625C6.1224 2.23958 6.07812 2.33854 6.07812 2.45312V2.82812C5.54688 2.90104 5.1276 3.09375 4.82031 3.40625C4.51302 3.71875 4.35938 4.10938 4.35938 4.57812C4.35938 5.08854 4.49219 5.49479 4.75781 5.79688C5.02344 6.09896 5.51562 6.38542 6.23438 6.65625C6.97396 6.9375 7.46354 7.18229 7.70312 7.39062C7.94271 7.59896 8.0625 7.86979 8.0625 8.20312C8.0625 8.54688 7.92188 8.83594 7.64062 9.07031C7.35938 9.30469 7.01562 9.42188 6.60938 9.42188C6.26562 9.42188 5.95052 9.33854 5.66406 9.17188C5.3776 9.00521 5.15625 8.77083 5 8.46875C4.94792 8.38542 4.8776 8.32031 4.78906 8.27344C4.70052 8.22656 4.60938 8.21875 4.51562 8.25C4.38021 8.30208 4.28906 8.38281 4.24219 8.49219C4.19531 8.60156 4.20833 8.71354 4.28125 8.82812C4.48958 9.17188 4.73698 9.45052 5.02344 9.66406C5.3099 9.8776 5.65104 10.0365 6.04688 10.1406V10.5625C6.04688 10.6771 6.09115 10.776 6.17969 10.8594C6.26823 10.9427 6.36979 10.9844 6.48438 10.9844Z" fill="#F6CA5A"/>
</svg>
