<svg width="13" height="14" viewBox="0 0 13 14" fill="none" xmlns="http://www.w3.org/2000/svg">
<path d="M1.1875 14C0.927083 14 0.705729 13.9089 0.523438 13.7266C0.341146 13.5443 0.25 13.3229 0.25 13.0625C0.25 12.7917 0.341146 12.5651 0.523438 12.3828C0.705729 12.2005 0.932292 12.1094 1.20312 12.1094H11.8125C12.0729 12.1094 12.2943 12.2005 12.4766 12.3828C12.6589 12.5651 12.75 12.7865 12.75 13.0469C12.75 13.3177 12.6589 13.5443 12.4766 13.7266C12.2943 13.9089 12.0729 14 11.8125 14H1.1875ZM2 10.4531C1.86458 10.4531 1.7526 10.4089 1.66406 10.3203C1.57552 10.2318 1.53125 10.1198 1.53125 9.9844V8.56252C1.53125 8.50002 1.54167 8.44273 1.5625 8.39065C1.58333 8.33857 1.61979 8.28648 1.67188 8.2344L7.35938 2.5469L9.4375 4.62503L3.75 10.3125C3.69792 10.3646 3.64583 10.4011 3.59375 10.4219C3.54167 10.4427 3.48438 10.4531 3.42188 10.4531H2ZM10.125 3.93753L8.04688 1.8594L9.35938 0.5469C9.47396 0.411484 9.60417 0.341171 9.75 0.335963C9.89583 0.330754 10.0417 0.401067 10.1875 0.5469L11.4062 1.76565C11.5417 1.90107 11.6094 2.0443 11.6094 2.19534C11.6094 2.34638 11.5521 2.48961 11.4375 2.62503L10.125 3.93753Z" fill="#F6CA5A"/>
</svg>
