<svg width="22" height="22" viewBox="0 0 22 22" fill="none" xmlns="http://www.w3.org/2000/svg">
<path d="M15.8125 15.4625C15.6375 15.2875 15.55 15.076 15.55 14.8281C15.55 14.5802 15.6375 14.3736 15.8125 14.2083L18.1458 11.875H8.8125C8.56458 11.875 8.35677 11.7907 8.18906 11.622C8.02135 11.4533 7.9375 11.2443 7.9375 10.9949C7.9375 10.7455 8.02135 10.5382 8.18906 10.3729C8.35677 10.2076 8.56458 10.125 8.8125 10.125H18.0875L15.725 7.7625C15.5694 7.60694 15.4917 7.40815 15.4917 7.16613C15.4917 6.92409 15.5812 6.71506 15.7604 6.53905C15.9247 6.36302 16.13 6.275 16.3763 6.275C16.6227 6.275 16.8333 6.3625 17.0083 6.5375L20.8875 10.4167C20.9847 10.5139 21.0528 10.6124 21.0917 10.7122C21.1306 10.812 21.15 10.919 21.15 11.033C21.15 11.1471 21.1306 11.2528 21.0917 11.35C21.0528 11.4472 20.9847 11.5444 20.8875 11.6417L17.0375 15.4917C16.8819 15.6472 16.6826 15.725 16.4396 15.725C16.1965 15.725 15.9875 15.6375 15.8125 15.4625ZM2.25 21.5C1.78333 21.5 1.375 21.325 1.025 20.975C0.675 20.625 0.5 20.2167 0.5 19.75V2.25C0.5 1.78333 0.675 1.375 1.025 1.025C1.375 0.675 1.78333 0.5 2.25 0.5H9.8625C10.1104 0.5 10.3182 0.58434 10.4859 0.753021C10.6536 0.921721 10.7375 1.13075 10.7375 1.3801C10.7375 1.62948 10.6536 1.83681 10.4859 2.00208C10.3182 2.16736 10.1104 2.25 9.8625 2.25H2.25V19.75H9.8625C10.1104 19.75 10.3182 19.8343 10.4859 20.003C10.6536 20.1717 10.7375 20.3807 10.7375 20.6301C10.7375 20.8795 10.6536 21.0868 10.4859 21.2521C10.3182 21.4174 10.1104 21.5 9.8625 21.5H2.25Z" fill="#2E2737"/>
</svg>
