<svg width="24" height="24" viewBox="0 0 24 24" fill="none" xmlns="http://www.w3.org/2000/svg">
<path d="M12.1166 18.7958C12.4277 18.7958 12.6902 18.6889 12.9041 18.475C13.118 18.2611 13.2249 17.9986 13.2249 17.6875C13.2249 17.3764 13.118 17.1139 12.9041 16.9C12.6902 16.6861 12.4277 16.5792 12.1166 16.5792C11.8055 16.5792 11.543 16.6861 11.3291 16.9C11.1152 17.1139 11.0083 17.3764 11.0083 17.6875C11.0083 17.9986 11.1152 18.2611 11.3291 18.475C11.543 18.6889 11.8055 18.7958 12.1166 18.7958ZM12.0874 6.75C12.7485 6.75 13.2833 6.92986 13.6916 7.28959C14.0999 7.64931 14.3041 8.11111 14.3041 8.675C14.3041 9.06389 14.1874 9.44792 13.9541 9.82709C13.7208 10.2063 13.3416 10.6194 12.8166 11.0667C12.311 11.5139 11.9076 11.9854 11.6062 12.4813C11.3048 12.9771 11.1541 13.4292 11.1541 13.8375C11.1541 14.0514 11.2367 14.2215 11.402 14.3479C11.5673 14.4743 11.7569 14.5375 11.9708 14.5375C12.2041 14.5375 12.3985 14.4597 12.5541 14.3042C12.7096 14.1486 12.8069 13.9542 12.8458 13.7208C12.9041 13.3319 13.0353 12.9868 13.2395 12.6854C13.4437 12.384 13.7596 12.0583 14.1874 11.7083C14.7708 11.2222 15.1937 10.7361 15.4562 10.25C15.7187 9.76389 15.8499 9.21945 15.8499 8.61667C15.8499 7.58611 15.5145 6.75972 14.8437 6.1375C14.1728 5.51528 13.2833 5.20417 12.1749 5.20417C11.436 5.20417 10.7555 5.35 10.1333 5.64167C9.51103 5.93334 8.99575 6.36111 8.58742 6.925C8.43186 7.13889 8.36867 7.35764 8.39784 7.58125C8.427 7.80486 8.51936 7.975 8.67492 8.09167C8.88881 8.24722 9.11728 8.29584 9.36034 8.2375C9.60339 8.17917 9.8027 8.04306 9.95825 7.82917C10.211 7.47917 10.5173 7.21181 10.877 7.02709C11.2367 6.84236 11.6402 6.75 12.0874 6.75ZM11.9999 23.6667C10.3666 23.6667 8.8402 23.3701 7.42075 22.7771C6.00131 22.184 4.76659 21.3625 3.71659 20.3125C2.66659 19.2625 1.8402 18.0278 1.23742 16.6083C0.634641 15.1889 0.333252 13.6528 0.333252 12C0.333252 10.3667 0.634641 8.84028 1.23742 7.42084C1.8402 6.00139 2.66659 4.76667 3.71659 3.71667C4.76659 2.66667 6.00131 1.84028 7.42075 1.2375C8.8402 0.634725 10.3666 0.333336 11.9999 0.333336C13.6138 0.333336 15.1305 0.634725 16.5499 1.2375C17.9694 1.84028 19.2041 2.66667 20.2541 3.71667C21.3041 4.76667 22.1353 6.00139 22.7478 7.42084C23.3603 8.84028 23.6666 10.3667 23.6666 12C23.6666 13.6528 23.3603 15.1889 22.7478 16.6083C22.1353 18.0278 21.3041 19.2625 20.2541 20.3125C19.2041 21.3625 17.9694 22.184 16.5499 22.7771C15.1305 23.3701 13.6138 23.6667 11.9999 23.6667ZM11.9999 21.9167C14.7416 21.9167 17.0798 20.9444 19.0145 19C20.9492 17.0556 21.9166 14.7222 21.9166 12C21.9166 9.27778 20.9492 6.94445 19.0145 5C17.0798 3.05556 14.7416 2.08334 11.9999 2.08334C9.21936 2.08334 6.87145 3.05556 4.95617 5C3.04089 6.94445 2.08325 9.27778 2.08325 12C2.08325 14.7222 3.04089 17.0556 4.95617 19C6.87145 20.9444 9.21936 21.9167 11.9999 21.9167Z" fill="#2E2737"/>
</svg>
