<svg width="22" height="22" viewBox="0 0 22 22" fill="none" xmlns="http://www.w3.org/2000/svg">
<path d="M11.0119 21.6252C9.53695 21.6252 8.15539 21.3464 6.86724 20.7887C5.5791 20.231 4.45586 19.473 3.49752 18.5147C2.53919 17.5563 1.78118 16.4332 1.22349 15.1452C0.665806 13.8572 0.386963 12.4758 0.386963 11.001C0.386963 9.52615 0.665806 8.14451 1.22349 6.85606C1.78118 5.5676 2.53919 4.4442 3.49752 3.48587C4.45586 2.52756 5.5791 1.76956 6.86724 1.21187C8.15539 0.65416 9.53695 0.375305 11.0119 0.375305C12.584 0.375305 14.0776 0.705837 15.4927 1.3669C16.9077 2.02796 18.1225 2.95705 19.1369 4.15415V2.13009C19.1369 1.86446 19.2268 1.64181 19.4065 1.46212C19.5863 1.28243 19.809 1.19259 20.0748 1.19259C20.3405 1.19259 20.5631 1.28243 20.7426 1.46212C20.9221 1.64181 21.0118 1.86446 21.0118 2.13009V6.40887C21.0118 6.72897 20.9036 6.99729 20.687 7.21384C20.4705 7.4304 20.2021 7.53868 19.882 7.53868H15.6032C15.3376 7.53868 15.115 7.44879 14.9353 7.26902C14.7556 7.08925 14.6657 6.8665 14.6657 6.60077C14.6657 6.33502 14.7556 6.11241 14.9353 5.93293C15.115 5.75345 15.3376 5.66371 15.6032 5.66371H17.935C17.0728 4.60121 16.0448 3.76668 14.8508 3.16012C13.6569 2.55356 12.3773 2.25027 11.0119 2.25027C8.57443 2.25027 6.50672 3.09923 4.80881 4.79715C3.11089 6.49507 2.26193 8.56277 2.26193 11.0003C2.26193 13.4378 3.11089 15.5055 4.80881 17.2034C6.50672 18.9013 8.57443 19.7503 11.0119 19.7503C13.0312 19.7503 14.828 19.1305 16.4026 17.8909C17.9771 16.6513 19.0023 15.066 19.4783 13.1349C19.5584 12.8737 19.6998 12.6757 19.9025 12.5411C20.1053 12.4065 20.3344 12.356 20.5901 12.3897C20.8617 12.4233 21.0716 12.5443 21.2198 12.7527C21.368 12.961 21.4085 13.1893 21.3412 13.4377C20.8011 15.8288 19.5728 17.7911 17.6561 19.3247C15.7395 20.8584 13.5247 21.6252 11.0119 21.6252ZM11.9494 10.6205L15.3869 14.058C15.56 14.2311 15.6485 14.4486 15.6525 14.7106C15.6565 14.9726 15.568 15.1942 15.3869 15.3753C15.2058 15.5564 14.9863 15.6469 14.7283 15.6469C14.4703 15.6469 14.2507 15.5564 14.0696 15.3753L10.4134 11.719C10.2964 11.602 10.2107 11.4745 10.1562 11.3366C10.1017 11.1986 10.0744 11.0561 10.0744 10.9089V5.68774C10.0744 5.42214 10.1643 5.19949 10.3441 5.01981C10.5239 4.84012 10.7466 4.75027 11.0123 4.75027C11.2781 4.75027 11.5007 4.84012 11.6802 5.01981C11.8597 5.19949 11.9494 5.42214 11.9494 5.68774V10.6205Z" fill="#2E2737"/>
</svg>
