<svg width="20" height="23" viewBox="0 0 20 23" fill="none" xmlns="http://www.w3.org/2000/svg">
<path d="M1.875 20.375H6.5625V12.5625H13.4375V20.375H18.125V8.1875L10 2.09375L1.875 8.1875V20.375ZM1.875 22.25C1.35938 22.25 0.917969 22.0664 0.550781 21.6992C0.183594 21.332 0 20.8906 0 20.375V8.1875C0 7.89062 0.0664062 7.60938 0.199219 7.34375C0.332031 7.07812 0.515625 6.85938 0.75 6.6875L8.875 0.59375C9.04781 0.46875 9.22848 0.375 9.417 0.3125C9.60552 0.25 9.80191 0.21875 10.0062 0.21875C10.2104 0.21875 10.4054 0.25 10.5911 0.3125C10.7768 0.375 10.9548 0.46875 11.125 0.59375L19.25 6.6875C19.4844 6.85938 19.668 7.07812 19.8008 7.34375C19.9336 7.60938 20 7.89062 20 8.1875V20.375C20 20.8906 19.8164 21.332 19.4492 21.6992C19.082 22.0664 18.6406 22.25 18.125 22.25H11.5625V14.4375H8.4375V22.25H1.875Z" fill="#A2A2A2"/>
</svg>
