<svg width="24" height="24" viewBox="0 0 24 24" fill="none" xmlns="http://www.w3.org/2000/svg">
<path d="M11.9999 23.6667C10.3666 23.6667 8.8402 23.3604 7.42075 22.7479C6.00131 22.1354 4.76659 21.3042 3.71659 20.2542C2.66659 19.2042 1.8402 17.9646 1.23742 16.5354C0.634641 15.1062 0.333252 13.575 0.333252 11.9417C0.333252 10.3083 0.634641 8.7868 1.23742 7.37708C1.8402 5.96736 2.66659 4.73749 3.71659 3.68749C4.76659 2.6375 6.00131 1.81597 7.42075 1.22291C8.8402 0.629856 10.3666 0.333328 11.9999 0.333328C13.6333 0.333328 15.1596 0.629856 16.5791 1.22291C17.9985 1.81597 19.2333 2.6375 20.2833 3.68749C21.3333 4.73749 22.1596 5.96736 22.7624 7.37708C23.3652 8.7868 23.6666 10.3083 23.6666 11.9417C23.6666 13.575 23.3652 15.1062 22.7624 16.5354C22.1596 17.9646 21.3333 19.2042 20.2833 20.2542C19.2333 21.3042 17.9985 22.1354 16.5791 22.7479C15.1596 23.3604 13.6333 23.6667 11.9999 23.6667ZM11.9999 21.975C12.6805 21.275 13.2492 20.4729 13.7062 19.5687C14.1631 18.6646 14.5374 17.5903 14.8291 16.3458H9.19992C9.47214 17.5125 9.83672 18.5625 10.2937 19.4958C10.7506 20.4292 11.3194 21.2556 11.9999 21.975ZM9.52075 21.625C9.03464 20.8861 8.61659 20.0889 8.26659 19.2333C7.91659 18.3778 7.62492 17.4153 7.39159 16.3458H3.01659C3.75547 17.7264 4.61103 18.8104 5.58325 19.5979C6.55547 20.3854 7.86797 21.0611 9.52075 21.625ZM14.5083 21.5958C15.9083 21.1486 17.1673 20.4778 18.2853 19.5833C19.4034 18.6889 20.3027 17.6097 20.9833 16.3458H16.6374C16.3846 17.3958 16.0881 18.3486 15.7478 19.2042C15.4076 20.0597 14.9944 20.8569 14.5083 21.5958ZM2.43325 14.5958H7.07075C7.01242 14.0708 6.97839 13.5993 6.96867 13.1812C6.95895 12.7632 6.95409 12.35 6.95409 11.9417C6.95409 11.4556 6.96381 11.0229 6.98325 10.6437C7.0027 10.2646 7.04159 9.84166 7.09992 9.375H2.43325C2.29714 9.84166 2.20478 10.2597 2.15617 10.6292C2.10756 10.9986 2.08325 11.4361 2.08325 11.9417C2.08325 12.4472 2.10756 12.8993 2.15617 13.2979C2.20478 13.6965 2.29714 14.1292 2.43325 14.5958ZM8.87909 14.5958H15.1499C15.2277 13.9931 15.2763 13.5021 15.2958 13.1229C15.3152 12.7437 15.3249 12.35 15.3249 11.9417C15.3249 11.5528 15.3152 11.1785 15.2958 10.8187C15.2763 10.459 15.2277 9.97777 15.1499 9.375H8.87909C8.80131 9.97777 8.7527 10.459 8.73325 10.8187C8.71381 11.1785 8.70409 11.5528 8.70409 11.9417C8.70409 12.35 8.71381 12.7437 8.73325 13.1229C8.7527 13.5021 8.80131 13.9931 8.87909 14.5958ZM16.8999 14.5958H21.5666C21.7027 14.1292 21.7951 13.6965 21.8437 13.2979C21.8923 12.8993 21.9166 12.4472 21.9166 11.9417C21.9166 11.4361 21.8923 10.9986 21.8437 10.6292C21.7951 10.2597 21.7027 9.84166 21.5666 9.375H16.9291C16.9874 10.0556 17.0263 10.5757 17.0458 10.9354C17.0652 11.2951 17.0749 11.6306 17.0749 11.9417C17.0749 12.3694 17.0603 12.7729 17.0312 13.1521C17.002 13.5312 16.9583 14.0125 16.8999 14.5958ZM16.6083 7.62499H20.9833C20.3416 6.28333 19.4617 5.16527 18.3437 4.27083C17.2256 3.37638 15.9374 2.74444 14.4791 2.37499C14.9652 3.09444 15.3784 3.87222 15.7187 4.70833C16.0589 5.54444 16.3555 6.51666 16.6083 7.62499ZM9.19992 7.62499H14.8583C14.6444 6.59444 14.2846 5.59791 13.7791 4.63541C13.2735 3.67291 12.6805 2.82222 11.9999 2.08333C11.3777 2.60833 10.8527 3.29861 10.4249 4.15416C9.99714 5.00972 9.58881 6.16666 9.19992 7.62499ZM3.01659 7.62499H7.42075C7.63464 6.575 7.90686 5.6368 8.23742 4.81041C8.56797 3.98402 8.98603 3.18194 9.49159 2.40416C8.03325 2.77361 6.75964 3.39583 5.67075 4.27083C4.58186 5.14583 3.69714 6.26388 3.01659 7.62499Z" fill="#2E2737"/>
</svg>
