<svg width="25" height="38" viewBox="0 0 25 38" fill="none" xmlns="http://www.w3.org/2000/svg">
<path d="M2.37115 23.5929C2.37115 23.5929 -3.20961 32.8667 5.94509 36.4438C14.8266 39.9141 17.2857 29.4205 17.2857 29.4205C17.2857 29.4205 19.1437 29.7871 19.2075 28.4237C19.2075 28.4237 18.9867 27.9522 17.2261 28.1448L22.1834 15.7513C22.1834 15.7513 22.9165 15.1071 24.0895 12.1048C28.3242 1.26725 13.3446 -4.58579 9.11001 6.25176C7.93691 9.25403 8.03801 10.2242 8.03801 10.2242L3.27974 22.6954C2.11716 21.3602 1.63416 21.5571 1.63416 21.5571C0.756045 22.6024 2.37139 23.5929 2.37139 23.5929L2.37115 23.5929ZM18.585 3.94402C21.4088 5.0474 22.4605 8.83629 22.4605 8.83629L21.0881 12.3398C21.0881 12.3398 20.53 7.97409 17.3981 6.75038C14.2663 5.52667 11.0634 8.53971 11.0634 8.53971L12.4001 4.90533C12.4 4.90566 15.7611 2.84064 18.585 3.94402ZM5.6042 22.7215C5.6042 22.7215 6.39388 24.2374 9.98659 25.6412C13.5814 27.0458 15.416 26.4001 15.416 26.4001L15.5649 30.1569C15.5649 30.1569 12.7682 31.8674 8.33859 30.1366C3.91134 28.4068 3.03341 25.2028 3.03341 25.2028L5.6042 22.7215Z" fill="#2E2737"/>
</svg>
