<svg width="20" height="24" viewBox="0 0 20 24" fill="none" xmlns="http://www.w3.org/2000/svg">
<path d="M1.54175 20.1667C1.29383 20.1667 1.08602 20.0823 0.918311 19.9137C0.750602 19.745 0.666748 19.5359 0.666748 19.2866C0.666748 19.0372 0.750602 18.8299 0.918311 18.6646C1.08602 18.4993 1.29383 18.4167 1.54175 18.4167H3.11675V9.49168C3.11675 7.89723 3.598 6.45348 4.5605 5.16043C5.523 3.86737 6.79175 3.05557 8.36675 2.72501V1.87918C8.36675 1.43195 8.52488 1.06251 8.84114 0.770843C9.15739 0.479177 9.54142 0.333344 9.99323 0.333344C10.445 0.333344 10.8313 0.479177 11.1522 0.770843C11.473 1.06251 11.6334 1.43195 11.6334 1.87918V2.72501C13.2084 3.05557 14.482 3.86737 15.4542 5.16043C16.4265 6.45348 16.9126 7.89723 16.9126 9.49168V18.4167H18.4584C18.7063 18.4167 18.9141 18.501 19.0819 18.6697C19.2496 18.8384 19.3334 19.0474 19.3334 19.2968C19.3334 19.5462 19.2496 19.7535 19.0819 19.9188C18.9141 20.084 18.7063 20.1667 18.4584 20.1667H1.54175ZM10.0001 23.6667C9.37786 23.6667 8.83342 23.4382 8.36675 22.9813C7.90008 22.5243 7.66675 21.975 7.66675 21.3333H12.3334C12.3334 21.975 12.1049 22.5243 11.648 22.9813C11.1911 23.4382 10.6417 23.6667 10.0001 23.6667ZM4.86675 18.4167H15.1626V9.49168C15.1626 8.03334 14.6716 6.80348 13.6897 5.80209C12.7077 4.8007 11.4924 4.30001 10.0438 4.30001C8.59522 4.30001 7.37022 4.8007 6.36883 5.80209C5.36744 6.80348 4.86675 8.03334 4.86675 9.49168V18.4167Z" fill="#2E2737"/>
</svg>
