<svg width="13" height="18" viewBox="0 0 13 18" fill="none" xmlns="http://www.w3.org/2000/svg">
<path d="M7.41601 16.2895C7.41601 16.2895 4.95241 16.135 4.12969 16.0833C1.43382 15.914 1.16096 15.6487 0.716415 12.8339C0.519837 11.5908 0.00797917 7.84848 0.00797917 7.84848C-0.128222 6.71975 1.52208 6.45064 1.68869 7.60738C1.68869 7.60738 2.15813 11.1902 2.35842 12.3772C2.62829 13.9811 2.85667 14.2584 4.49801 14.3612L7.51306 14.5504C8.70132 14.6249 8.58235 16.3631 7.41601 16.2895ZM2.8458 3.92238C3.94161 3.92238 4.82775 3.04456 4.82775 1.96256C4.82775 0.878984 3.94161 0 2.8458 0C1.74999 0 0.860192 0.878693 0.860192 1.96256C0.860192 3.04433 1.74975 3.92238 2.8458 3.92238ZM12.6853 16.0859L10.0673 11.3883C9.81061 11.0454 9.40752 10.8143 8.93949 10.7915C8.45646 10.7455 7.97342 10.6995 7.49017 10.6534C7.17421 10.6234 6.85849 10.5933 6.54232 10.5632C6.42364 10.5518 6.29758 10.527 6.17912 10.5429L5.73342 8.65037C5.72051 8.58656 5.70807 8.52252 5.69516 8.45895L5.64769 8.29533L5.10197 5.76397C5.04251 5.48845 4.9017 5.24986 4.71019 5.06711L4.70789 5.05868C4.64866 5.00581 4.58459 4.9591 4.51822 4.91626C4.49402 4.9003 4.46798 4.88709 4.44263 4.87273C4.41682 4.85837 4.39285 4.84128 4.36589 4.82852C4.36589 4.82852 4.35045 4.81804 4.35137 4.82237C4.34284 4.81804 4.33317 4.81576 4.32418 4.81188C4.27624 4.79001 4.22762 4.77201 4.17737 4.7556C4.14672 4.74557 4.11584 4.73668 4.0845 4.72848C4.04348 4.718 4.00292 4.7082 3.96097 4.70159C3.7879 4.67128 3.60722 4.66786 3.42377 4.70387C3.35878 4.71663 3.29587 4.73782 3.23341 4.75902L3.22834 4.75993C3.22327 4.76084 3.21936 4.76312 3.21452 4.76426C3.19792 4.77018 3.18041 4.77383 3.16428 4.78021C2.45814 4.96548 2.00994 5.66917 2.16363 6.38294L2.97413 10.1419C3.067 10.7864 3.30622 12.3073 3.55373 12.743C3.56871 12.7699 3.58668 12.797 3.61065 12.825C3.94159 13.2183 4.27826 13.5198 4.82652 13.546L8.6975 13.7322L11.0215 17.6466C11.233 17.8674 11.5128 17.985 11.7976 17.9987C12.0993 18.013 12.4062 17.9105 12.6427 17.6888C13.1015 17.2585 13.1214 16.5409 12.6853 16.086L12.6853 16.0859Z" fill="#F6CA5A"/>
</svg>
