<svg width="20" height="24" viewBox="0 0 20 24" fill="none" xmlns="http://www.w3.org/2000/svg">
<path d="M10.0052 17.7167C10.2546 17.7167 10.4619 17.6328 10.6272 17.4651C10.7924 17.2974 10.8751 17.0896 10.8751 16.8417V11.0958C10.8751 10.8479 10.7907 10.6401 10.6221 10.4724C10.4534 10.3047 10.2443 10.2208 9.99498 10.2208C9.7456 10.2208 9.53828 10.3047 9.373 10.4724C9.20772 10.6401 9.12508 10.8479 9.12508 11.0958V16.8417C9.12508 17.0896 9.20942 17.2974 9.3781 17.4651C9.5468 17.6328 9.75583 17.7167 10.0052 17.7167ZM10.0001 8.29584C10.2811 8.29584 10.5166 8.2008 10.7066 8.01073C10.8967 7.82066 10.9917 7.58514 10.9917 7.30417C10.9917 7.0232 10.8967 6.78768 10.7066 6.59761C10.5166 6.40754 10.2811 6.3125 10.0001 6.3125C9.71911 6.3125 9.48359 6.40754 9.29352 6.59761C9.10345 6.78768 9.00841 7.0232 9.00841 7.30417C9.00841 7.58514 9.10345 7.82066 9.29352 8.01073C9.48359 8.2008 9.71911 8.29584 10.0001 8.29584ZM10.0001 23.5792C9.92878 23.5792 9.85748 23.5743 9.7862 23.5646C9.7149 23.5549 9.65008 23.5403 9.59175 23.5208C6.98619 22.7431 4.8473 21.1438 3.17508 18.7229C1.50286 16.3021 0.666748 13.6431 0.666748 10.7458V5.02917C0.666748 4.65473 0.772477 4.31774 0.983936 4.0182C1.19539 3.71864 1.46883 3.50146 1.80425 3.36667L9.38758 0.537504C9.60147 0.459726 9.80564 0.420837 10.0001 0.420837C10.1945 0.420837 10.3987 0.459726 10.6126 0.537504L18.1959 3.36667C18.5313 3.50146 18.8048 3.71864 19.0162 4.0182C19.2277 4.31774 19.3334 4.65473 19.3334 5.02917V10.7458C19.3334 13.6431 18.4973 16.3021 16.8251 18.7229C15.1529 21.1438 13.014 22.7431 10.4084 23.5208L10.0001 23.5792ZM10.0001 21.8292C12.2362 21.0903 14.0591 19.6951 15.4688 17.6438C16.8786 15.5924 17.5834 13.2931 17.5834 10.7458V5.02917L10.0001 2.17084L2.41675 5.02917V10.7458C2.41675 13.2931 3.12161 15.5924 4.53133 17.6438C5.94105 19.6951 7.76397 21.0903 10.0001 21.8292Z" fill="#2E2737"/>
</svg>
