<svg width="24" height="21" viewBox="0 0 24 21" fill="none" xmlns="http://www.w3.org/2000/svg">
<path d="M2.08325 20.1667C1.61659 20.1667 1.20825 19.9854 0.858252 19.6229C0.508252 19.2604 0.333252 18.8375 0.333252 18.3542V13.7323C1.0527 13.5712 1.65061 13.1835 2.127 12.5693C2.60339 11.955 2.84159 11.2653 2.84159 10.5C2.84159 9.73473 2.60339 9.03994 2.127 8.41564C1.65061 7.79133 1.0527 7.40869 0.333252 7.26772V2.64584C0.333252 2.16251 0.508252 1.73959 0.858252 1.37709C1.20825 1.01459 1.61659 0.833344 2.08325 0.833344H21.9166C22.3833 0.833344 22.7916 1.01459 23.1416 1.37709C23.4916 1.73959 23.6666 2.16251 23.6666 2.64584V7.26772C22.9471 7.40869 22.3541 7.79133 21.8874 8.41564C21.4208 9.03994 21.1874 9.73473 21.1874 10.5C21.1874 11.2653 21.4208 11.955 21.8874 12.5693C22.3541 13.1835 22.9471 13.5712 23.6666 13.7323V18.3542C23.6666 18.8375 23.4916 19.2604 23.1416 19.6229C22.7916 19.9854 22.3833 20.1667 21.9166 20.1667H2.08325ZM2.08325 18.3542H21.9166V15.0615C21.2166 14.558 20.6284 13.9085 20.152 13.113C19.6756 12.3175 19.4374 11.4465 19.4374 10.5C19.4374 9.55348 19.6756 8.68248 20.152 7.88699C20.6284 7.0915 21.2166 6.44202 21.9166 5.93855V2.64584H2.08325V5.93855C2.78325 6.44202 3.37631 7.0915 3.86242 7.88699C4.34853 8.68248 4.59159 9.55348 4.59159 10.5C4.59159 11.4465 4.34853 12.3175 3.86242 13.113C3.37631 13.9085 2.78325 14.558 2.08325 15.0615V18.3542ZM11.9999 12.9469L13.9249 14.5177C14.0805 14.6788 14.2555 14.6889 14.4499 14.5479C14.6444 14.407 14.7027 14.2257 14.6249 14.0042L13.8666 11.5271L15.7916 9.86564C15.9471 9.72466 15.9958 9.55348 15.9374 9.35209C15.8791 9.15071 15.743 9.05001 15.5291 9.05001H13.2249L12.4083 6.60314C12.3305 6.40175 12.1944 6.30105 11.9999 6.30105C11.8055 6.30105 11.6694 6.40175 11.5916 6.60314L10.7749 9.05001H8.47075C8.25686 9.05001 8.12075 9.15071 8.06242 9.35209C8.00409 9.55348 8.0527 9.72466 8.20825 9.86564L10.1333 11.5271L9.37492 14.0042C9.29714 14.2257 9.35547 14.407 9.54992 14.5479C9.74436 14.6889 9.91936 14.6788 10.0749 14.5177L11.9999 12.9469Z" fill="#2E2737"/>
</svg>
