<svg width="17" height="17" viewBox="0 0 17 17" fill="none" xmlns="http://www.w3.org/2000/svg">
<path d="M9.15304 8.26266V4.87829C9.15304 4.70676 9.09697 4.56492 8.98481 4.45277C8.87266 4.34061 8.73082 4.28454 8.55929 4.28454C8.38777 4.28454 8.24593 4.34061 8.13377 4.45277C8.02162 4.56492 7.96554 4.70676 7.96554 4.87829V8.50016C7.96554 8.57933 7.97874 8.6519 8.00513 8.71787C8.03152 8.78384 8.0711 8.84982 8.12388 8.91579L10.9739 11.8647C11.0926 11.9967 11.2411 12.0594 11.4192 12.0528C11.5973 12.0462 11.7458 11.9835 11.8645 11.8647C11.9833 11.746 12.0426 11.6009 12.0426 11.4293C12.0426 11.2578 11.9833 11.1127 11.8645 10.9939L9.15304 8.26266ZM8.49992 16.4168C7.41797 16.4168 6.3954 16.209 5.43221 15.7934C4.46902 15.3778 3.62787 14.8104 2.90877 14.0913C2.18968 13.3722 1.62231 12.5311 1.20669 11.5679C0.791064 10.6047 0.583252 9.58211 0.583252 8.50016C0.583252 7.41822 0.791064 6.39565 1.20669 5.43245C1.62231 4.46926 2.18968 3.62811 2.90877 2.90902C3.62787 2.18992 4.46902 1.62256 5.43221 1.20693C6.3954 0.791309 7.41797 0.583496 8.49992 0.583496C9.58186 0.583496 10.6044 0.791309 11.5676 1.20693C12.5308 1.62256 13.372 2.18992 14.0911 2.90902C14.8102 3.62811 15.3775 4.46926 15.7931 5.43245C16.2088 6.39565 16.4166 7.41822 16.4166 8.50016C16.4166 9.58211 16.2088 10.6047 15.7931 11.5679C15.3775 12.5311 14.8102 13.3722 14.0911 14.0913C13.372 14.8104 12.5308 15.3778 11.5676 15.7934C10.6044 16.209 9.58186 16.4168 8.49992 16.4168ZM8.49992 15.2293C10.3471 15.2293 11.9305 14.5696 13.2499 13.2502C14.5694 11.9307 15.2291 10.3474 15.2291 8.50016C15.2291 6.65294 14.5694 5.06961 13.2499 3.75016C11.9305 2.43072 10.3471 1.771 8.49992 1.771C6.6527 1.771 5.06936 2.43072 3.74992 3.75016C2.43047 5.06961 1.77075 6.65294 1.77075 8.50016C1.77075 10.3474 2.43047 11.9307 3.74992 13.2502C5.06936 14.5696 6.6527 15.2293 8.49992 15.2293Z" fill="#F6CA5A"/>
</svg>
