<svg width="14" height="17" viewBox="0 0 14 17" fill="none" xmlns="http://www.w3.org/2000/svg">
<path d="M12.3284 2.89462H9.86607C9.71836 1.63073 8.65139 0.645752 7.35453 0.645752H7.23956C5.94281 0.645752 4.87573 1.63073 4.7444 2.89462H2.28211C1.4942 2.89462 0.854004 3.53482 0.854004 4.32272C0.854004 4.51967 1.00172 4.6675 1.19878 4.6675H13.4118C13.6087 4.6675 13.7566 4.51979 13.7566 4.32272C13.7564 3.53482 13.1163 2.89462 12.3284 2.89462ZM7.25603 1.97539H7.371C7.92909 1.97539 8.38872 2.36939 8.52004 2.89462H6.10699C6.22184 2.36939 6.69794 1.97539 7.25603 1.97539Z" fill="white"/>
<path d="M2.75836 15.0256C2.8076 15.715 3.38218 16.2404 4.07162 16.2404H10.5393C11.2287 16.2404 11.8033 15.715 11.8525 15.0256L12.6404 5.55396L1.97046 5.55407L2.75836 15.0256ZM8.65146 8.26248C8.66784 7.95056 8.93051 7.72078 9.24241 7.73713C9.55434 7.75351 9.78412 8.01618 9.76777 8.32808L9.47223 13.5317C9.45586 13.8272 9.20956 14.0571 8.91414 14.0571H8.88128C8.56936 14.0407 8.33957 13.778 8.35593 13.4661L8.65146 8.26248ZM5.38482 7.73725C5.69674 7.72088 5.95941 7.95068 5.97577 8.2626L6.27118 13.4663C6.28756 13.7782 6.05775 14.0408 5.74584 14.0572H5.71297C5.41756 14.0572 5.17127 13.8274 5.15488 13.5319L4.85946 8.3282C4.84309 8.01628 5.0729 7.75361 5.38482 7.73725Z" fill="white"/>
</svg>
