<svg width="20" height="19" viewBox="0 0 20 19" fill="none" xmlns="http://www.w3.org/2000/svg">
<path d="M10.0001 8.97082C8.71675 8.97082 7.66675 8.56249 6.85008 7.74582C6.03341 6.92916 5.62508 5.87916 5.62508 4.59582C5.62508 3.31249 6.03341 2.26249 6.85008 1.44583C7.66675 0.629158 8.71675 0.220825 10.0001 0.220825C11.2834 0.220825 12.3334 0.629158 13.1501 1.44583C13.9667 2.26249 14.3751 3.31249 14.3751 4.59582C14.3751 5.87916 13.9667 6.92916 13.1501 7.74582C12.3334 8.56249 11.2834 8.97082 10.0001 8.97082ZM17.5834 18.3333H2.41675C1.9355 18.3333 1.52352 18.162 1.18081 17.8193C0.838102 17.4766 0.666748 17.0646 0.666748 16.5833V15.5917C0.666748 14.8528 0.85147 14.2208 1.22091 13.6958C1.59036 13.1708 2.06675 12.7722 2.65008 12.5C3.95286 11.9167 5.20216 11.4792 6.398 11.1875C7.59383 10.8958 8.79453 10.75 10.0001 10.75C11.2056 10.75 12.4015 10.9007 13.5876 11.2021C14.7737 11.5035 16.0174 11.938 17.3186 12.5056C17.9272 12.7803 18.4152 13.1786 18.7825 13.7005C19.1498 14.2224 19.3334 14.8528 19.3334 15.5917V16.5833C19.3334 17.0646 19.1621 17.4766 18.8194 17.8193C18.4766 18.162 18.0647 18.3333 17.5834 18.3333ZM2.41675 16.5833H17.5834V15.5917C17.5834 15.2805 17.4911 14.984 17.3063 14.7021C17.1216 14.4201 16.8931 14.2111 16.6209 14.075C15.3765 13.4722 14.239 13.059 13.2084 12.8354C12.1779 12.6118 11.1084 12.5 10.0001 12.5C8.89175 12.5 7.81258 12.6118 6.76258 12.8354C5.71258 13.059 4.57508 13.4722 3.35008 14.075C3.07786 14.2111 2.85425 14.4201 2.67925 14.7021C2.50425 14.984 2.41675 15.2805 2.41675 15.5917V16.5833ZM10.0001 7.22082C10.7584 7.22082 11.3855 6.97291 11.8813 6.47707C12.3772 5.98124 12.6251 5.35416 12.6251 4.59582C12.6251 3.83749 12.3772 3.21041 11.8813 2.71458C11.3855 2.21874 10.7584 1.97083 10.0001 1.97083C9.24175 1.97083 8.61466 2.21874 8.11883 2.71458C7.623 3.21041 7.37508 3.83749 7.37508 4.59582C7.37508 5.35416 7.623 5.98124 8.11883 6.47707C8.61466 6.97291 9.24175 7.22082 10.0001 7.22082Z" fill="#2E2737"/>
</svg>
