<svg width="27" height="25" viewBox="0 0 27 25" fill="none" xmlns="http://www.w3.org/2000/svg">
<path d="M18.4125 14.7C18.9854 14.7 19.4953 14.4766 19.9422 14.0297C20.3891 13.5828 20.6125 13.0672 20.6125 12.4828C20.6125 11.8984 20.3891 11.3885 19.9422 10.9531C19.4953 10.5177 18.9854 10.3 18.4125 10.3C17.8396 10.3 17.3297 10.5177 16.8828 10.9531C16.4359 11.3885 16.2125 11.8984 16.2125 12.4828C16.2125 13.0672 16.4359 13.5828 16.8828 14.0297C17.3297 14.4766 17.8396 14.7 18.4125 14.7ZM2.1875 20.9906V22.8125V2.1875V20.9906ZM2.1875 24.875C1.66042 24.875 1.1849 24.6688 0.760938 24.2563C0.336979 23.8438 0.125 23.3625 0.125 22.8125V2.1875C0.125 1.66042 0.336979 1.1849 0.760938 0.760938C1.1849 0.336979 1.66042 0.125 2.1875 0.125H22.8125C23.3625 0.125 23.8438 0.336979 24.2563 0.760938C24.6688 1.1849 24.875 1.66042 24.875 2.1875V6.79375H22.8125V2.1875H2.1875V22.8125H22.8125V18.2406H24.875V22.8125C24.875 23.3625 24.6688 23.8438 24.2563 24.2563C23.8438 24.6688 23.3625 24.875 22.8125 24.875H2.1875ZM14.4938 18.9281C13.7146 18.9281 13.0958 18.699 12.6375 18.2406C12.1792 17.7823 11.95 17.175 11.95 16.4188V8.61563C11.95 7.83646 12.1792 7.22344 12.6375 6.77656C13.0958 6.32969 13.7146 6.10625 14.4938 6.10625H23.775C24.5542 6.10625 25.1729 6.32969 25.6313 6.77656C26.0896 7.22344 26.3188 7.83646 26.3188 8.61563V16.4188C26.3188 17.175 26.0896 17.7823 25.6313 18.2406C25.1729 18.699 24.5542 18.9281 23.775 18.9281H14.4938Z" fill="white"/>
</svg>
